<svg version="1.1" id="shape" xmlns="http://www.w3.org/2000/svg" x="0px" y="0px"
	 viewBox="0 0 520 160" style="enable-background:new 0 0 520 160;" xml:space="preserve">
<style>
	.st0{fill:none;stroke:#4E4E4E;stroke-width:6;stroke-linecap:round;stroke-miterlimit:10;}
	.st1{fill:none;stroke:#4E4E4E;stroke-width:6;stroke-miterlimit:10;}
	.st2{fill:none;}
	.st3{fill:#425066;}
</style>
<path class="st0" d="M310.24,145.31c-3.44-58.08,30.61-76.74,44.35-86.37c8.49-8.67,43.88-45.74,52.08-45.74
	c8.2,0,4.14,30.27,7.57,43.64c14.37,4.51,40.29,8.69,52.16,13.37c12.18-8.86,44.04-32.33,44.04-32.33"/>
<ellipse class="st1" cx="379.81" cy="87.45" rx="12.1" ry="10.61"/>
<ellipse class="st1" cx="491.85" cy="121.98" rx="11.71" ry="11.29"/>
<path class="st0" d="M403,110.7c0,0-13.62,12.94-4.68,22.57c8.08,8.7,22.73-2.75,25.47-5.03c0.27,0.17-0.02-0.01,0.25,0.16
	c-1.05,3.1-5.4,18.42,11.44,18.42c18.74,0,17.49-13.54,17.49-13.54"/>
<line class="st0" x1="375.76" y1="66.43" x2="400.18" y2="66.43"/>
<line class="st0" x1="497.22" y1="90.7" x2="504.95" y2="99.63"/>
<g>
	<rect x="10" y="43.66" class="st2" width="278.2" height="72.67"/>
	<path class="st3" d="M39.88,85.75c0,2.98-0.26,5.68-0.79,8.1c-0.53,2.42-1.33,4.5-2.41,6.23c-1.08,1.73-2.45,3.07-4.1,4.03
		c-1.66,0.96-3.61,1.44-5.87,1.44c-2.26,0-4.22-0.48-5.9-1.44c-1.68-0.96-3.06-2.3-4.14-4.03c-1.08-1.73-1.88-3.8-2.41-6.23
		c-0.53-2.42-0.79-5.12-0.79-8.1c0-2.93,0.26-5.62,0.79-8.06c0.53-2.45,1.33-4.55,2.41-6.3s2.46-3.11,4.14-4.07
		c1.68-0.96,3.65-1.44,5.9-1.44c2.26,0,4.21,0.48,5.87,1.44c1.66,0.96,3.02,2.32,4.1,4.07c1.08,1.75,1.88,3.85,2.41,6.3
		C39.62,80.13,39.88,82.82,39.88,85.75z M33.4,85.75c0-2.11-0.12-4.04-0.36-5.8c-0.24-1.75-0.62-3.26-1.15-4.54
		c-0.53-1.27-1.22-2.25-2.09-2.95c-0.86-0.69-1.9-1.04-3.1-1.04c-1.25,0-2.29,0.35-3.13,1.04c-0.84,0.7-1.54,1.68-2.09,2.95
		c-0.55,1.27-0.95,2.78-1.19,4.54c-0.24,1.75-0.36,3.68-0.36,5.8c0,2.11,0.12,4.04,0.36,5.8c0.24,1.75,0.64,3.25,1.19,4.5
		c0.55,1.25,1.25,2.22,2.09,2.92c0.84,0.7,1.88,1.04,3.13,1.04c1.2,0,2.23-0.35,3.1-1.04c0.86-0.7,1.56-1.67,2.09-2.92
		c0.53-1.25,0.91-2.75,1.15-4.5C33.28,89.79,33.4,87.86,33.4,85.75z"/>
	<path class="st3" d="M48.95,104.61V49.82l6.19-1.08v18.29c0.91-0.29,1.91-0.53,2.99-0.72c1.08-0.19,2.17-0.29,3.28-0.29
		c1.58,0,3.07,0.25,4.46,0.76c1.39,0.5,2.6,1.36,3.64,2.56c1.03,1.2,1.85,2.82,2.45,4.86c0.6,2.04,0.9,4.57,0.9,7.6v22.82h-6.19
		V82.29c0-3.74-0.48-6.48-1.44-8.21c-0.96-1.73-2.76-2.59-5.4-2.59c-1.39,0-2.95,0.24-4.68,0.72v32.4H48.95z"/>
	<path class="st3" d="M79.77,80.13h13.32v5.83H79.77V80.13z"/>
	<path class="st3" d="M100.43,67.89c1.68-0.53,3.5-0.97,5.47-1.33c1.97-0.36,3.77-0.54,5.4-0.54c1.68,0,3.2,0.22,4.57,0.65
		c1.37,0.43,2.58,1.15,3.64,2.16c1.25-0.82,2.59-1.49,4.03-2.02c1.44-0.53,3.02-0.79,4.75-0.79s3.3,0.25,4.72,0.76
		c1.42,0.5,2.63,1.36,3.64,2.56c1.01,1.2,1.8,2.82,2.38,4.86c0.58,2.04,0.87,4.57,0.87,7.6v22.82h-6.19V82.29
		c0-3.74-0.43-6.48-1.3-8.21c-0.86-1.73-2.5-2.59-4.9-2.59c-0.91,0-1.84,0.17-2.77,0.5c-0.94,0.34-1.81,0.79-2.63,1.37
		c0.38,1.1,0.67,2.35,0.86,3.74c0.19,1.39,0.29,2.95,0.29,4.68v22.82h-6.19V82.29c0-3.74-0.43-6.48-1.3-8.21
		c-0.86-1.73-2.5-2.59-4.9-2.59c-1.25,0-2.66,0.24-4.25,0.72v32.4h-6.19V67.89z"/>
	<path class="st3" d="M158.39,96.76c1.39-4.8,2.66-9.62,3.82-14.47c1.15-4.85,2.26-10.01,3.31-15.48h6.12
		c-0.72,3.5-1.49,6.96-2.33,10.37s-1.7,6.7-2.58,9.86c-0.88,3.17-1.77,6.16-2.65,8.96c-0.88,2.81-1.71,5.36-2.47,7.67
		c-0.92,2.69-1.79,4.96-2.64,6.8c-0.84,1.85-1.76,3.34-2.74,4.46c-0.99,1.13-2.06,1.94-3.21,2.45s-2.53,0.76-4.12,0.76
		c-0.87,0-1.73-0.11-2.6-0.32s-1.59-0.44-2.17-0.68l1.15-5.04c1.25,0.53,2.43,0.79,3.53,0.79c1.4,0,2.52-0.5,3.39-1.51
		c0.87-1.01,1.71-2.52,2.53-4.54l0.72-1.8c-0.92-2.5-1.84-5.27-2.78-8.32c-0.94-3.05-1.85-6.23-2.74-9.54
		c-0.89-3.31-1.74-6.71-2.56-10.19c-0.82-3.48-1.56-6.88-2.24-10.19h6.55c0.38,2.26,0.84,4.73,1.37,7.42
		c0.53,2.69,1.09,5.38,1.69,8.06c0.6,2.69,1.21,5.29,1.84,7.81C157.21,92.62,157.81,94.84,158.39,96.76z"/>
	<path class="st3" d="M174.3,80.13h13.32v5.83H174.3V80.13z"/>
	<path class="st3" d="M206.5,85.18c0.85,1.44,1.73,2.97,2.65,4.6c0.92,1.63,1.83,3.27,2.72,4.95c0.9,1.67,1.74,3.34,2.54,5.02
		c0.79,1.67,1.49,3.29,2.08,4.87h-6.1c-0.94-2.5-2.04-4.88-3.29-7.14c-1.25-2.26-2.49-4.38-3.71-6.36c-1.23,1.98-2.47,4.1-3.72,6.36
		c-1.25,2.26-2.37,4.64-3.35,7.14h-5.88c0.55-1.53,1.23-3.12,2.05-4.77c0.82-1.65,1.68-3.31,2.57-4.98s1.8-3.31,2.72-4.91
		c0.92-1.6,1.8-3.12,2.65-4.56l-9.63-18.58h6.26l6.48,12.6l6.55-12.6h6.05L206.5,85.18z"/>
	<path class="st3" d="M238.74,49.82l6.19-1.08v54.86c-1.34,0.58-2.88,1.04-4.61,1.4c-1.73,0.36-3.48,0.54-5.26,0.54
		c-5.18,0-8.94-1.66-11.27-4.97c-2.33-3.31-3.49-8.3-3.49-14.98c0-3.02,0.25-5.75,0.76-8.17s1.3-4.49,2.38-6.19
		c1.08-1.7,2.46-3.02,4.14-3.96c1.68-0.94,3.67-1.4,5.98-1.4c1.1,0,2.05,0.11,2.84,0.32s1.57,0.52,2.34,0.9V49.82z M238.74,72.5
		c-1.39-0.77-2.88-1.15-4.46-1.15c-1.2,0-2.26,0.24-3.17,0.72c-0.91,0.48-1.69,1.27-2.34,2.38c-0.65,1.1-1.14,2.57-1.48,4.39
		c-0.34,1.83-0.5,4.08-0.5,6.77c0,5.18,0.68,8.89,2.05,11.12c1.37,2.23,3.44,3.35,6.23,3.35c0.53,0,1.1-0.04,1.73-0.11
		c0.62-0.07,1.27-0.2,1.94-0.4V72.5z"/>
	<path class="st3" d="M279.49,103.53c-0.62,0.24-1.38,0.47-2.27,0.68c-0.89,0.22-1.83,0.41-2.81,0.58
		c-0.98,0.17-1.97,0.31-2.95,0.43c-0.98,0.12-1.88,0.18-2.7,0.18c-1.97,0-3.77-0.23-5.4-0.68c-1.63-0.46-3.02-1.26-4.18-2.41
		c-1.15-1.15-2.04-2.72-2.66-4.72c-0.62-1.99-0.94-4.5-0.94-7.52V66.81h6.19v23.04c0,3.7,0.56,6.3,1.69,7.81
		c1.13,1.51,2.84,2.27,5.15,2.27c0.77,0,1.54-0.04,2.3-0.11c0.77-0.07,1.56-0.23,2.38-0.47V66.81h6.19V103.53z"/>
</g>
</svg>
